{"title":"[Seiakusetsu] Sakura Trick - 02 (1280x720 h264 AAC) [b66a0194].m","uid":9488726,"size":241045575,"categoryP":"video","categoryS":"hd___tv_shows","magnet":"?xt=urn:btih:d5adfd068f7e8aabd1d57ec3dc1265490ffb90df&amp;dn=%5BSeiakusetsu%5D+Sakura+Trick+-+02+%281280x720+h264+AAC%29+%5Bb66a0194%5D.m&amp;tr=udp%3A%2F%2Ftracker.openbittorrent.com%3A80&amp;tr=udp%3A%2F%2Fopen.demonii.com%3A1337&amp;tr=udp%3A%2F%2Ftracker.coppersurfer.tk%3A6969&amp;tr=udp%3A%2F%2Fexodus.desync.com%3A6969","seeders":1,"leechers":0,"uploader":null,"files":-1,"time":1389956946,"description":"Anime: Sakura Trick\nEpisode: 02\n\n\nVIDEO\n=====\nID : 1\nFormat : MPEG-4 (playable on PS3, Xbox 360, etc.)\nFormat/Info : Advanced Video Codec\nFormat profile : &lt;a class=&quot;__cf_email__&quot; href=&quot;/cdn-cgi/l/email-protection&quot; data-cfemail=&quot;d39bbab4bb939fe7fde2&quot;&gt;[email&amp;#160;protected]&lt;/a&gt;&lt;script cf-hash='f9e31' type=&quot;text/javascript&quot;&gt;\n/* &lt;![CDATA[ */!function(){try{var t=&quot;currentScript&quot;in document?document.currentScript:function(){for(var t=document.getElementsByTagName(&quot;script&quot;),e=t.length;e--;)if(t[e].getAttribute(&quot;cf-hash&quot;))return t[e]}();if(t&amp;&amp;t.previousSibling){var e,r,n,i,c=t.previousSibling,a=c.getAttribute(&quot;data-cfemail&quot;);if(a){for(e=&quot;&quot;,r=parseInt(a.substr(0,2),16),n=2;a.length-n;n+=2)i=parseInt(a.substr(n,2),16)^r,e+=String.fromCharCode(i);e=document.createTextNode(e),c.parentNode.replaceChild(e,c)}}}catch(u){}}();/* ]]&gt; */&lt;/script&gt;\nFormat settings, CABAC : Yes\nFormat settings, ReFrames : 2 frames\nCodec ID : avc1\nCodec ID/Info : Advanced Video Coding\nDuration : 24mn 9s\nBit rate : 1 192 Kbps\nMaximum bit rate : 7 228 Kbps\nWidth : 1 280 pixels\nHeight : 720 pixels\nDisplay aspect ratio : 16:9\nFrame rate mode : Constant\nFrame rate : 23.976 fps\nColor space : YUV\nChroma subsampling : 4:2:0\nBit depth : 8 bits\nScan type : Progressive\nBits/(Pixel*Frame) : 0.059\nStream size : 206 MiB (90%)\n\n\nAUDIO\n=====\nID : 2\nFormat : AAC\nFormat/Info : Advanced Audio Codec\nFormat profile : LC\nCodec ID : 40\nDuration : 24mn 9s\nBit rate mode : Variable\nBit rate : 132 Kbps\nMaximum bit rate : 169 Kbps\nChannel count : 2 channels\nChannel positions : Front: L R\nSampling rate : 48.0 KHz\nCompression mode : Lossy\nDelay relative to video : 42ms\nStream size : 23.1 MiB (9%)\n\n\nSUBTITLES\n========\nEnglish subtitles from Doki fansubs\n\n\nscreenshots: &lt;a href=&quot;\nhttp://i.imgur.com/MxEchtX.jpg&quot; rel=&quot;nofollow&quot; target=&quot;_NEW&quot;&gt;\nhttp://i.imgur.com/MxEchtX.jpg&lt;/a&gt;","torrent":{"xt":"urn:btih:d5adfd068f7e8aabd1d57ec3dc1265490ffb90df","amp;dn":"%5BSeiakusetsu%5D+Sakura+Trick+-+02+%281280x720+h264+AAC%29+%5Bb66a0194%5D.m","amp;tr":["udp%3A%2F%2Ftracker.openbittorrent.com%3A80","udp%3A%2F%2Fopen.demonii.com%3A1337","udp%3A%2F%2Ftracker.coppersurfer.tk%3A6969","udp%3A%2F%2Fexodus.desync.com%3A6969"],"infoHash":"d5adfd068f7e8aabd1d57ec3dc1265490ffb90df","infoHashBuffer":{"type":"Buffer","data":[213,173,253,6,143,126,138,171,209,213,126,195,220,18,101,73,15,251,144,223]},"announce":[],"urlList":[]}}